{
  "source": "C:\\Users\\Peter\\Desktop\\stuff\\MIUN\\quantitative_research\\video_compression\\videos\\BVI-HD\\BVI-HD_CDVL_videos\\ORIG\\KineticFastPainting_1920x1080_60fps.mp4",
  "output": "C:\\Users\\Peter\\Desktop\\stuff\\MIUN\\quantitative_research\\video_compression\\compressed_videos\\BVI-HD\\av1\\1\\KineticFastPainting_1920x1080_60fps_av1.mkv",
  "codec": "av1",
  "ok": "Input #0, mov,mp4,m4a,3gp,3g2,mj2, from 'C:\\Users\\Peter\\Desktop\\stuff\\MIUN\\quantitative_research\\video_compression\\videos\\BVI-HD\\BVI-HD_CDVL_videos\\ORIG\\KineticFastPainting_1920x1080_60fps.mp4':\n  Metadata:\n    major_brand     : isom\n    minor_version   : 512\n    compatible_brands: isomiso2avc1mp41\n    encoder         : Lavf54.28.101\n  Duration: 00:00:05.00, start: 0.000000, bitrate: 477980 kb/s\n  Stream #0:0[0x1](und): Video: h264 (High 4:4:4 Predictive) (avc1 / 0x31637661), yuv420p(progressive), 1920x1080, 477974 kb/s, 60 fps, 60 tbr, 60 tbn (default)\n    Metadata:\n      handler_name    : VideoHandler\n      vendor_id       : [0][0][0][0]\n[out#0/matroska @ 000001a8c74a9000] Codec AVOption b:a (set bitrate (in bits/s)) has not been used for any stream. The most likely reason is either wrong type (e.g. a video option with no video streams) or that it is a private option of some decoder which was not actually used for any stream.\nStream mapping:\n  Stream #0:0 -> #0:0 (h264 (native) -> av1 (libsvtav1))\nPress [q] to stop, [?] for help\nSvt[info]: -------------------------------------------\nSvt[info]: SVT [version]:\tSVT-AV1 Encoder Lib v3.1.0-19-g6ecfe8ec\nSvt[info]: SVT [build]  :\tGCC 15.2.0\t 64 bit\nSvt[info]: LIB Build date: Aug 17 2025 11:37:13\nSvt[info]: -------------------------------------------\nSvt[info]: Level of Parallelism: 5\nSvt[info]: Number of PPCS 93\nSvt[info]: [asm level on system : up to avx2]\nSvt[info]: [asm level selected : up to avx2]\nSvt[info]: -------------------------------------------\nSvt[info]: SVT [config]: main profile\ttier (auto)\tlevel (auto)\nSvt[info]: SVT [config]: width / height / fps numerator / fps denominator \t\t: 1920 / 1080 / 60 / 1\nSvt[info]: SVT [config]: bit-depth / color format \t\t\t\t\t: 8 / YUV420\nSvt[info]: SVT [config]: preset / tune / pred struct \t\t\t\t\t: 4 / PSNR / random access\nSvt[info]: SVT [config]: gop size / mini-gop size / key-frame type \t\t\t: 321 / 16 / key frame\nSvt[info]: SVT [config]: BRC mode / target bitrate (kbps)\t\t\t\t: VBR / 1000 \nSvt[info]: SVT [config]: AQ mode / Variance Boost \t\t\t\t\t: 2 / 0\nSvt[info]: SVT [config]: sharpness / luminance-based QP bias \t\t\t\t: 0 / 0\nSvt[info]: SVT [config]: QP scale compress strength \t\t\t\t\t: 0\nSvt[info]: -------------------------------------------\nOutput #0, matroska, to 'C:\\Users\\Peter\\Desktop\\stuff\\MIUN\\quantitative_research\\video_compression\\compressed_videos\\BVI-HD\\av1\\1\\KineticFastPainting_1920x1080_60fps_av1.mkv':\n  Metadata:\n    major_brand     : isom\n    minor_version   : 512\n    compatible_brands: isomiso2avc1mp41\n    encoder         : Lavf62.3.100\n  Stream #0:0(und): Video: av1 (AV01 / 0x31305641), yuv420p(tv, progressive), 1920x1080, q=2-31, 1000 kb/s, 60 fps, 1k tbn (default)\n    Metadata:\n      encoder         : Lavc62.11.100 libsvtav1\n      handler_name    : VideoHandler\n      vendor_id       : [0][0][0][0]\n    Side data:\n      cpb: bitrate max/min/avg: 0/0/1000000 buffer size: 1000000 vbv_delay: N/A\nframe=    0 fps=0.0 q=0.0 size=       0KiB time=N/A bitrate=N/A speed=N/A elapsed=0:00:01.03    \nframe=    0 fps=0.0 q=0.0 size=       0KiB time=N/A bitrate=N/A speed=N/A elapsed=0:00:01.60    \nframe=    0 fps=0.0 q=0.0 size=       0KiB time=N/A bitrate=N/A speed=N/A elapsed=0:00:02.18    \nframe=    0 fps=0.0 q=0.0 size=       0KiB time=N/A bitrate=N/A speed=N/A elapsed=0:00:02.77    \nframe=    0 fps=0.0 q=0.0 size=       0KiB time=N/A bitrate=N/A speed=N/A elapsed=0:00:03.34    \nframe=    0 fps=0.0 q=0.0 size=       0KiB time=N/A bitrate=N/A speed=N/A elapsed=0:00:03.90    \nframe=    0 fps=0.0 q=0.0 size=       0KiB time=N/A bitrate=N/A speed=N/A elapsed=0:00:04.47    \nframe=    0 fps=0.0 q=0.0 size=       0KiB time=N/A bitrate=N/A speed=N/A elapsed=0:00:04.98    \nframe=    1 fps=0.2 q=55.0 size=       1KiB time=00:00:00.00 bitrate=N/A speed=   0x elapsed=0:00:05.52    \nframe=    3 fps=0.5 q=62.0 size=       1KiB time=00:00:00.03 bitrate= 170.9kbits/s speed=0.0055x elapsed=0:00:06.06    \nframe=    8 fps=1.2 q=61.0 size=       1KiB time=00:00:00.11 bitrate=  48.8kbits/s speed=0.0177x elapsed=0:00:06.60    \nframe=   12 fps=1.7 q=60.0 size=       1KiB time=00:00:00.18 bitrate=  31.1kbits/s speed=0.0256x elapsed=0:00:07.16    \nframe=   17 fps=2.2 q=56.0 size=       1KiB time=00:00:00.26 bitrate=  21.4kbits/s speed=0.0344x elapsed=0:00:07.75    \nframe=   21 fps=2.5 q=59.0 size=       1KiB time=00:00:00.33 bitrate=  17.1kbits/s speed=0.0402x elapsed=0:00:08.29    \nframe=   24 fps=2.7 q=61.0 size=       1KiB time=00:00:00.36 bitrate=  15.5kbits/s speed=0.0414x elapsed=0:00:08.86    \nframe=   28 fps=3.0 q=61.0 size=       1KiB time=00:00:00.45 bitrate=  12.7kbits/s speed=0.0476x elapsed=0:00:09.46    \nframe=   36 fps=3.6 q=60.0 size=       1KiB time=00:00:00.58 bitrate=   9.8kbits/s speed=0.0582x elapsed=0:00:10.02    \nframe=   40 fps=3.8 q=62.0 size=       1KiB time=00:00:00.65 bitrate=   8.8kbits/s speed=0.0615x elapsed=0:00:10.56    \nframe=   47 fps=4.2 q=62.0 size=       1KiB time=00:00:00.76 bitrate=   7.4kbits/s speed=0.0689x elapsed=0:00:11.12    \nframe=   52 fps=4.4 q=60.0 size=       1KiB time=00:00:00.85 bitrate=   6.7kbits/s speed=0.0727x elapsed=0:00:11.69    \nframe=   57 fps=4.7 q=60.0 size=       1KiB time=00:00:00.91 bitrate=   6.2kbits/s speed=0.075x elapsed=0:00:12.22    \nframe=   64 fps=5.0 q=63.0 size=       1KiB time=00:00:01.03 bitrate=   5.5kbits/s speed=0.081x elapsed=0:00:12.76    \nframe=   71 fps=5.3 q=63.0 size=       1KiB time=00:00:01.16 bitrate=   4.9kbits/s speed=0.0874x elapsed=0:00:13.35    \nframe=   78 fps=5.6 q=63.0 size=       1KiB time=00:00:01.26 bitrate=   4.5kbits/s speed=0.0912x elapsed=0:00:13.88    \nframe=   85 fps=5.9 q=63.0 size=       1KiB time=00:00:01.40 bitrate=   4.1kbits/s speed=0.097x elapsed=0:00:14.42    \nframe=   90 fps=6.0 q=63.0 size=       1KiB time=00:00:01.48 bitrate=   3.8kbits/s speed=0.0991x elapsed=0:00:14.97    \nframe=   96 fps=6.2 q=63.0 size=       1KiB time=00:00:01.58 bitrate=   3.6kbits/s speed=0.102x elapsed=0:00:15.52    \nframe=  102 fps=6.4 q=62.0 size=       1KiB time=00:00:01.68 bitrate=   3.4kbits/s speed=0.105x elapsed=0:00:16.05    \nframe=  107 fps=6.4 q=62.0 size=       1KiB time=00:00:01.76 bitrate=   3.2kbits/s speed=0.106x elapsed=0:00:16.61    \nframe=  115 fps=6.7 q=63.0 size=       1KiB time=00:00:01.90 bitrate=   3.0kbits/s speed=0.11x elapsed=0:00:17.20    \nframe=  122 fps=6.9 q=63.0 size=       1KiB time=00:00:02.01 bitrate=   2.8kbits/s speed=0.114x elapsed=0:00:17.75    \nframe=  131 fps=7.1 q=63.0 size=       1KiB time=00:00:02.16 bitrate=   2.6kbits/s speed=0.118x elapsed=0:00:18.33    \nframe=  139 fps=7.4 q=63.0 size=       1KiB time=00:00:02.28 bitrate=   2.5kbits/s speed=0.121x elapsed=0:00:18.87    \nframe=  148 fps=7.6 q=63.0 size=       1KiB time=00:00:02.43 bitrate=   2.3kbits/s speed=0.125x elapsed=0:00:19.50    \nframe=  153 fps=7.6 q=61.0 size=       1KiB time=00:00:02.50 bitrate=   2.3kbits/s speed=0.125x elapsed=0:00:20.07    \nframe=  160 fps=7.7 q=63.0 size=       1KiB time=00:00:02.61 bitrate=   2.2kbits/s speed=0.127x elapsed=0:00:20.66    \nframe=  166 fps=7.8 q=62.0 size=       1KiB time=00:00:02.75 bitrate=   2.1kbits/s speed=0.13x elapsed=0:00:21.21    \nframe=  171 fps=7.9 q=62.0 size=       1KiB time=00:00:02.81 bitrate=   2.0kbits/s speed=0.13x elapsed=0:00:21.73    \nframe=  177 fps=7.9 q=56.0 size=       1KiB time=00:00:02.93 bitrate=   1.9kbits/s speed=0.131x elapsed=0:00:22.32    \nframe=  183 fps=8.0 q=63.0 size=       1KiB time=00:00:03.03 bitrate=   1.9kbits/s speed=0.133x elapsed=0:00:22.85    \nframe=  191 fps=8.2 q=63.0 size=       1KiB time=00:00:03.16 bitrate=   1.8kbits/s speed=0.135x elapsed=0:00:23.39    \nframe=  198 fps=8.3 q=62.0 size=       1KiB time=00:00:03.28 bitrate=   1.7kbits/s speed=0.137x elapsed=0:00:23.95    \nframe=  205 fps=8.4 q=60.0 size=       1KiB time=00:00:03.40 bitrate=   1.7kbits/s speed=0.139x elapsed=0:00:24.49    \nframe=  211 fps=8.4 q=63.0 size=       1KiB time=00:00:03.50 bitrate=   1.6kbits/s speed=0.14x elapsed=0:00:25.06    \nframe=  217 fps=8.5 q=60.0 size=       1KiB time=00:00:03.60 bitrate=   1.6kbits/s speed=0.14x elapsed=0:00:25.63    \nframe=  227 fps=8.7 q=63.0 size=       1KiB time=00:00:03.76 bitrate=   1.5kbits/s speed=0.144x elapsed=0:00:26.15    \nframe=  237 fps=8.9 q=61.0 size=       1KiB time=00:00:03.90 bitrate=   1.5kbits/s speed=0.146x elapsed=0:00:26.69    \nframe=  247 fps=9.1 q=63.0 size=       1KiB time=00:00:04.06 bitrate=   1.4kbits/s speed=0.149x elapsed=0:00:27.24    \nframe=  253 fps=9.1 q=60.0 size=       1KiB time=00:00:04.20 bitrate=   1.4kbits/s speed=0.151x elapsed=0:00:27.81    \nframe=  265 fps=9.3 q=60.0 size=       1KiB time=00:00:04.40 bitrate=   1.3kbits/s speed=0.155x elapsed=0:00:28.38    \nframe=  271 fps=9.4 q=63.0 size=       1KiB time=00:00:04.46 bitrate=   1.3kbits/s speed=0.154x elapsed=0:00:28.94    \nframe=  281 fps=9.5 q=61.0 size=       1KiB time=00:00:04.66 bitrate=   1.2kbits/s speed=0.158x elapsed=0:00:29.50    \n[out#0/matroska @ 000001a8c74a9000] video:548KiB audio:0KiB subtitle:0KiB other streams:0KiB global headers:0KiB muxing overhead: 0.378046%\nframe=  300 fps= 10 q=63.0 Lsize=     550KiB time=00:00:04.98 bitrate= 903.7kbits/s speed=0.166x elapsed=0:00:30.01    \n",
  "seconds": 30.64548945426941,
  "probe_out": {}
}